<svg width="70" height="70" viewBox="0 0 70 70" fill="none" xmlns="http://www.w3.org/2000/svg">
<path d="M57.4296 23.6025C57.4675 24.1129 57.4675 24.6204 57.4675 25.1279C57.4675 40.6592 45.6462 58.5558 24.0425 58.5558C17.3867 58.5558 11.2033 56.6279 6 53.2796C6.945 53.3875 7.855 53.4254 8.83792 53.4254C14.1258 53.4382 19.264 51.67 23.4242 48.4058C20.9725 48.3615 18.5958 47.5526 16.6261 46.0921C14.6564 44.6317 13.1919 42.5926 12.4371 40.2596C13.1633 40.3675 13.8925 40.4404 14.6567 40.4404C15.7096 40.4404 16.7683 40.2946 17.7512 40.0408C15.0905 39.5036 12.698 38.0614 10.9806 35.9595C9.26306 33.8576 8.3266 31.2256 8.33042 28.5113V28.3654C9.89667 29.2375 11.7137 29.7829 13.6387 29.8558C12.0261 28.7842 10.7038 27.3301 9.78974 25.6231C8.87572 23.9162 8.39841 22.0096 8.40042 20.0733C8.40042 17.8917 8.98083 15.8908 9.99875 14.1467C12.9508 17.778 16.6327 20.7487 20.806 22.8665C24.9792 24.9843 29.5508 26.2019 34.2246 26.4404C34.0437 25.5654 33.9329 24.6583 33.9329 23.7483C33.9321 22.2053 34.2355 20.6773 34.8256 19.2515C35.4158 17.8258 36.2811 16.5304 37.3722 15.4393C38.4633 14.3482 39.7587 13.4829 41.1844 12.8927C42.6102 12.3026 44.1382 11.9992 45.6812 12C49.0646 12 52.1183 13.4175 54.265 15.71C56.8952 15.2014 59.4174 14.2412 61.72 12.8721C60.8433 15.587 59.0068 17.8891 56.5546 19.3471C58.8873 19.081 61.1671 18.4676 63.3183 17.5271C61.7116 19.8695 59.7207 21.9235 57.4296 23.6025V23.6025Z" fill="#CCCCCC"/>
</svg>
